# xmcd
#
# Track frame offsets: 
#        205
#        53430
#        112805
#        182510
#        223230
#
# Disc length: 3801 seconds
#
# Revision: 4
# Processed by: cddbd v1.5.2PL0 Copyright (c) Steve Scherf et al.
# Submitted via: ExactAudioCopy v1.0b3
#
DISCID=3a0ed705
DTITLE=Mahler - Sinfonía nº5 - Sinfónica de Radio Ljubljana - Anton Na
DTITLE=nut
DYEAR=1991
DGENRE=Classical
TTITLE0=Marcha Fúnebre
TTITLE1=Agile
TTITLE2=Scherzo
TTITLE3=Adagietto
TTITLE4=Final-Rondó Allegro giocoso
EXTD=Radio Symphony Orchestra Lijubijana
EXTT0=
EXTT1=
EXTT2=
EXTT3=
EXTT4=
PLAYORDER=
